<?xml version="1.0" encoding="utf-8"?>
<svg version="1.1" id="Layer_1" xmlns="http://www.w3.org/2000/svg" xmlns:xlink="http://www.w3.org/1999/xlink" x="0px" y="0px"
	 viewBox="0 0 4124.153 5000" enable-background="new 0 0 4124.153 5000" xml:space="preserve">
<g>
	<g>
		<g>
			<g>
				<g>
					<rect x="836.711" y="2458.302" fill="#FAB78D" width="250.026" height="111.934"/>
					<path fill="#E59C81" d="M1086.737,2491.527v-33.225H836.711v68.208C934.997,2533.906,1018.897,2518.05,1086.737,2491.527z"/>
				</g>
				<g>
					<g>
						<path fill="#F7B68D" d="M1417.227,3436.574c0,0,89.784-380.921-162.815-777.289c0,0-6.252-90.397,50.104-74.052
							c0,0,404.05,301.72,205.274,872.551C1509.79,3457.785,1453.271,3533.674,1417.227,3436.574z"/>
						<g>
							<path fill="#F7B68D" d="M1501.004,3648.265c43.156-61.627,48.018-122.396,48.018-122.396s8.623-64.406-22.108-94.852
								c0,0-46.018-59.667-108.216-22.11c-15.775,9.522-23.171,29.465-31.794,44.75c-0.613,1.021-1.105,2.084-1.718,3.065
								c-10.175,17.614-21.537,34.654-37.025,48.018c-26.031,22.395-8.133,42.011-8.133,42.011
								c8.133,9.646,22.682,8.665,31.549,0.41c10.83-10.259,21.374-21.129,31.999-31.633c19.085-12.299,19.085,4.578,19.085,4.578
								c-15.611,45.321-45.443,96.896-45.443,96.896c-7.07,20.024,8.296,27.952,8.296,27.952s12.586,13.609,41.479-29.873
								c0,0,25.092-40.214,35.962-82.919c-2.371,28.157-34.696,90.153-34.696,90.153c-21.005,25.378,2.697,35.717,2.697,35.717
								c29.181,7.233,48.755-50.021,48.755-50.021c18.758-50.389,28.362-70.497,28.362-70.497l-30.488,81.611
								c0,0-15.283,26.768-1.429,34.615C1476.157,3653.741,1486.741,3663.1,1501.004,3648.265z"/>
						</g>
					</g>
				</g>
				<g>
					<g>
						<polygon fill="#F1B092" points="833.811,4760.867 658.45,4760.867 618.4,4064.698 873.778,4064.698 						"/>
						<polygon fill="#F7B68D" points="833.811,4760.867 658.45,4760.867 618.4,4064.698 873.778,4064.698 						"/>
						<polygon opacity="0.5" fill="#F1B092" points="618.4,4064.698 618.4,4115.579 805.041,4115.579 765.032,4760.867 
							833.811,4760.867 873.778,4064.698 						"/>
					</g>
					<g>
						<g>
							<path fill="#F7B68D" d="M655.548,4709.989l-10.665,63.506c0,0-33.635,96.365,70.126,106.459
								c0,0,130.408,24.889,125.993-106.459l-4.25-63.506H655.548z"/>
						</g>
						<g>
							<g>
								<path fill="#F06487" d="M747.214,4999.326c0,0,115.613,0.655,111.566-127.914l-11.157-128.648
									c-4.821-55.333-111.934-57.909-111.934-57.909c-89.213,1.921-103.761,57.909-103.761,57.909l-63.261,137.558
									C568.666,4880.322,527.758,5010.443,747.214,4999.326z M814.89,4755.146c1.921,30.568,1.103,70.495-23.5,93.626
									c-28.157,26.278-85.453,15.285-116.797,1.961c-35.882-15.325-32.122-72.621-13.69-101.063c0,0,13.241-34.859,74.868-32.204
									C735.77,4717.467,808.228,4717.467,814.89,4755.146z"/>
								<path fill="#FFFFFF" d="M748.398,4959.399c-124.725,6.333-168.167-31.386-182.061-66.777
									c-3.802,32.204,3.229,115.695,180.876,106.704c0,0,112.139,0.368,111.321-122.886
									C835.814,4959.563,748.398,4959.399,748.398,4959.399z"/>
							</g>
						</g>
						<g>
							<path fill="#FFFFFF" d="M618.4,4817.55c0,0-2.084,16.306-7.723,39.887c-0.737,2.982-1.431,6.007-2.208,9.194
								c-0.695,3.105-1.961,6.825-1.839,8.665c-0.285,5.434,0.9,11.075,3.965,15.569c1.021,2.534,3.842,4.047,5.436,6.294
								l8.01,5.026c6.66,3.392,13.485,5.926,20.882,8.501c7.233,2.452,14.548,5.067,21.905,6.947
								c7.52,1.389,14.59,4.168,21.782,5.109c7.233,1.143,14.14,2.532,20.761,3.758c6.662,0.45,12.996,1.145,18.88,1.8
								c11.893,1.92,21.742,0.694,28.852,1.429c7.152,0.492,11.28,0.695,11.28,0.695s-3.881,1.187-10.749,3.271
								c-3.432,1.021-7.681,2.084-12.546,3.392c-4.821,1.471-10.462,2.534-16.591,2.779c-6.212,0.613-12.956,1.268-20.026,1.676
								c-7.152-0.245-14.793-0.573-22.516-1.186c-15.49-1.511-31.917-5.353-47.857-10.625c-7.681-3.023-15.856-6.333-23.211-10.38
								c-4.005-2.329-7.846-5.434-11.362-8.294c-3.023-3.965-6.744-7.07-8.499-11.73c-4.741-8.581-5.068-18.39-3.189-26.523
								c1.145-4.984,2.615-7.479,3.923-10.543c1.389-3.024,2.739-5.884,4.005-8.663C609.94,4831.648,618.4,4817.55,618.4,4817.55z"
								/>
						</g>
					</g>
					<g>
						<g>
							<polygon fill="#F1B092" points="1093.07,4760.867 1268.39,4760.867 1308.48,4064.698 1053.144,4064.698 							"/>
							<polygon fill="#F7B68D" points="1093.07,4760.867 1268.39,4760.867 1308.48,4064.698 1053.144,4064.698 							"/>
							<polygon opacity="0.5" fill="#F1B092" points="1308.48,4064.698 1308.48,4115.579 1121.799,4115.579 1161.849,4760.867 
								1093.07,4760.867 1053.144,4064.698 							"/>
						</g>
					</g>
					<g>
						<g>
							<path fill="#F7B68D" d="M1271.045,4714.525h-180.632l-3.555,58.97c-4.373,131.348,126.075,106.459,126.075,106.459
								c103.761-10.094,70.129-106.459,70.129-106.459L1271.045,4714.525z"/>
						</g>
						<g>
							<g>
								<path fill="#F06487" d="M1359.237,4880.322l-63.221-137.558c0,0-14.509-55.988-103.762-57.909
									c0,0-107.111,2.576-111.892,57.909l-11.117,128.648c-4.126,128.569,111.484,127.914,111.484,127.914
									C1400.227,5010.443,1359.237,4880.322,1359.237,4880.322z M1192.172,4717.467c61.587-2.655,74.91,32.204,74.91,32.204
									c18.432,28.442,22.15,85.738-13.772,101.063c-31.262,13.324-88.682,24.317-116.757-1.961
									c-24.642-23.131-25.379-63.058-23.497-93.626C1119.715,4717.467,1192.172,4717.467,1192.172,4717.467z"/>
								<path fill="#FFFFFF" d="M1179.545,4959.399c124.767,6.333,168.167-31.386,182.063-66.777
									c3.8,32.204-3.27,115.695-180.878,106.704c0,0-112.137,0.368-111.361-122.886
									C1092.131,4959.563,1179.545,4959.399,1179.545,4959.399z"/>
							</g>
						</g>
						<g>
							<path fill="#FFFFFF" d="M1309.543,4817.55c0,0,2.084,16.306,7.765,39.887c0.653,2.982,1.389,6.007,2.124,9.194
								c0.736,3.105,2.005,6.825,1.839,8.665c0.41,5.434-0.858,11.075-3.963,15.569c-0.9,2.534-3.76,4.047-5.436,6.294l-8.01,5.026
								c-6.62,3.392-13.527,5.926-20.842,8.501c-7.315,2.452-14.59,5.067-21.945,6.947c-7.438,1.389-14.59,4.168-21.742,5.109
								c-7.192,1.143-14.099,2.532-20.761,3.758c-6.66,0.45-12.954,1.145-18.84,1.8c-11.891,1.92-21.782,0.694-28.892,1.429
								c-7.152,0.492-11.28,0.695-11.28,0.695s3.883,1.187,10.749,3.271c3.473,1.021,7.641,2.084,12.506,3.392
								c4.821,1.471,10.502,2.534,16.632,2.779c6.21,0.613,12.872,1.268,20.024,1.676c7.152-0.245,14.712-0.573,22.476-1.186
								c15.611-1.511,31.959-5.353,47.855-10.625c7.725-3.023,15.898-6.333,23.255-10.38c4.005-2.329,7.805-5.434,11.401-8.294
								c2.984-3.965,6.742-7.07,8.459-11.73c4.739-8.581,4.986-18.39,3.187-26.523c-1.145-4.984-2.697-7.479-3.923-10.543
								c-1.429-3.024-2.697-5.884-3.963-8.663C1318.002,4831.648,1309.543,4817.55,1309.543,4817.55z"/>
						</g>
					</g>
				</g>
				<path fill="#FAB78D" d="M1360.218,2661.247c-23.703-75.726-82.756-88.069-82.756-88.069l-220.845-43.603h-94.157h-94.157
					l-220.845,43.603c0,0-59.012,12.343-82.714,88.069c-14.548,426.529-27.176,664.212-52.146,1007.085
					c0,0,184.147,74.868,449.863,67.839c265.677,7.028,449.821-67.839,449.821-67.839
					C1402.024,3489.171,1381.427,3097.911,1360.218,2661.247z"/>
				<path fill="#F178A3" d="M663.723,2569.991c0,0,40.622,282.391-109.403,324.402c0,0-13.525,172.009-47.282,767.603
					l-53.741,386.928c0,0,475.528,166.33,1016.81,6.375l-57.541-398.206c0,0-16.796-371.604-43.4-811.087
					c0,0-148.101-20.392-136.455-281.654l-57.786-13.038c0,0,9.481,183.821-237.314,185.823c0,0-212.099,3.023-225.3-176.708
					L663.723,2569.991z"/>
				<g>
					<g>
						<path fill="#F7B68D" d="M1770.318,1730.258c0,406.789-372.83,736.504-832.705,736.504
							c-459.917,0-832.663-329.714-832.663-736.504c0-406.831,372.746-736.545,832.663-736.545
							C1397.488,993.712,1770.318,1323.426,1770.318,1730.258z"/>
						<g>
							<g>
								<g>
									<g>
										<path fill="#F7B68D" d="M0.288,1877.827c4.128,66.613,50.717,118.023,104.088,114.673
											c53.333-3.27,93.26-59.953,89.132-126.606c-4.128-66.653-50.715-117.984-104.088-114.713
											C36.128,1754.492-3.799,1811.174,0.288,1877.827z"/>
										<g>
											<path fill="#E59C81" d="M47.816,1788.614c5.518-3.842,16.756-5.679,23.581-5.76
												c35.267-0.736,60.769,59.459,25.174,68.247c-13.935,13.322-0.939,30.241-0.939,30.241
												c11.36,14.753,26.644,36.043,21.985,55.946c-2.737,11.851-15.325,17.656-26.481,20.106
												c-8.909,1.921-10.299-5.679-3.147-8.907c5.436-2.494,10.259-6.702,13.977-11.238c0.326-0.695,0.776-1.349,1.184-2.044
												c0.329-0.45,0.573-0.858,0.86-1.389c1.308-2.902,1.429-5.844,0.858-8.746c-8.215,5.723-21.455,6.539-27.26-1.716
												c-6.21-8.991-0.613-22.395-2.287-32.407c-1.389-6.949-4.047-13.691-7.315-20.108
												c-14.672-29.996,14.63-33.428,14.63-33.428c4.413,0.245,7.805,0.776,10.707,1.308c15.12-7.643-0.205-32.286-9.031-36.535
												c-10.136-5.028-23.05-4.086-30.896,4.25c-7.846,8.46-11.443,21.987-11.362,33.183
												c0.123,13.937,2.697,27.873,7.643,40.869c2.779,7.315,6.455,16.019,9.357,23.376c3.229,8.294-5.721,11.441-9.031,3.105
												c-6.825-17.656-19.943-43.645-21.824-67.676C26.648,1819.347,30.897,1800.549,47.816,1788.614z"/>
										</g>
									</g>
								</g>
							</g>
							<g>
								<g>
									<g>
										<path fill="#F7B68D" d="M1874.977,1877.827c-4.168,66.613-50.757,118.023-104.088,114.673
											c-53.331-3.27-93.258-59.953-89.129-126.606c4.126-66.653,50.673-117.984,104.088-114.713
											C1839.136,1754.492,1879.023,1811.174,1874.977,1877.827z"/>
										<g>
											<path fill="#E59C81" d="M1827.448,1788.614c-5.516-3.842-16.754-5.679-23.579-5.76
												c-35.351-0.736-60.811,59.459-25.174,68.247c13.894,13.322,0.94,30.241,0.94,30.241
												c-11.362,14.753-26.645,36.043-22.027,55.946c2.779,11.851,15.325,17.656,26.439,20.106
												c8.991,1.921,10.38-5.679,3.229-8.907c-5.434-2.494-10.257-6.702-13.975-11.238c-0.368-0.695-0.818-1.349-1.186-2.044
												c-0.408-0.45-0.571-0.858-0.858-1.389c-1.308-2.902-1.431-5.844-0.858-8.746c8.173,5.723,21.455,6.539,27.218-1.716
												c6.252-8.991,0.571-22.395,2.329-32.407c1.389-6.949,4.047-13.691,7.273-20.108c14.672-29.996-14.63-33.428-14.63-33.428
												c-4.413,0.245-7.765,0.776-10.625,1.308c-15.161-7.643,0.163-32.286,8.951-36.535c10.175-5.028,23.048-4.086,30.936,4.25
												c7.846,8.46,11.441,21.987,11.401,33.183c-0.205,13.937-2.779,27.873-7.683,40.869
												c-2.779,7.315-6.457,16.019-9.359,23.376c-3.229,8.294,5.723,11.441,9.033,3.105
												c6.823-17.656,19.943-43.645,21.782-67.676C1848.619,1819.347,1844.367,1800.549,1827.448,1788.614z"/>
										</g>
									</g>
								</g>
							</g>
						</g>
						<g>
							<path fill="#E89C80" d="M997.482,1994.216c-7.723,0-13.975-6.252-13.975-13.977c0-25.295-20.558-45.892-45.894-45.892
								c-25.255,0-45.853,20.597-45.853,45.892c0,7.725-6.252,13.977-13.977,13.977c-7.641,0-13.935-6.252-13.935-13.977
								c0-40.661,33.102-73.723,73.765-73.723c40.703,0,73.765,33.062,73.765,73.723
								C1011.377,1987.964,1005.165,1994.216,997.482,1994.216z"> <title >Nose</title></path>
						</g>
						<path title="Hair" fill="#70432F" d="M1835.542,1772.595c-37.109-26.808-65.592-21.537-65.592-21.537
							c-32.244-306.951-299.841-592.039-299.841-592.039c127.995,241.114,39.764,376.793,39.764,376.793
							c25.379-215.899-82.633-351.864-82.633-351.864l-10.094,351.864l-212.549-14.875l-20.558-129.998l-50.021,129.998
							l-852.322-36.127c61.669-222.111,141.849-300.986,141.849-300.986c-211.649,133.145-289.54,467.274-289.54,467.274
							c-1.105,5.762-29.957,100.899-28.689,100.899c-53.946,0.778-60.606,16.348-60.606,16.348
							C-191.95,769.883,705.774,578.831,705.897,578.831c101.554-14.793,204.089-26.155,306.828-19.453
							c134.781,8.746,268.171,44.503,387.665,107.724C1400.39,667.103,2016.908,997.227,1835.542,1772.595z"/>
						<g>
							<g>
								<g>
									<path fill="#D6656F" d="M931.687,2272.397c-73.765-5.189-126.156-93.626-126.728-94.565
										c-5.804-9.481-8.052-13.935-4.415-23.334c2.779-7.112,7.233-7.765,15.122-8.052c1.553-0.04,121.946,0.042,245.324,1.471
										c4.699,0.042,10.299,2.576,13.567,6.581c5.313,6.578-1.961,18.43-4.821,22.068
										C1009.865,2252.863,970.714,2272.397,931.687,2272.397z"><title>Mouth</title></path>
								</g>
							</g>
							<path fill="#FFFFFF" d="M980.441,2183.839c19.493-7.846,32.488-20.842,41.969-36.454
								c-70.984-0.613-135.269-0.858-169.596-0.898C881.135,2186.781,932.708,2202.966,980.441,2183.839z"/>
						</g>
						<g>
							<path fill="#F4A485" d="M933.321,2322.052c-32.612,0-50.92-10.625-51.983-11.28c-6.702-4.005-8.826-12.628-4.821-19.248
								c3.963-6.62,12.504-8.746,19.124-4.863c1.555,0.897,31.591,17.122,86.639-1.226c7.315-2.452,15.283,1.511,17.735,8.868
								c2.452,7.315-1.511,15.285-8.868,17.737C968.672,2319.518,949.3,2322.052,933.321,2322.052z"/>
						</g>
						<g>
							<g>
								<g>
									<path fill="#70432F" d="M512.596,1596.376c29.873-17.859,62.853-21.413,96.936-18.511
										c15.325,1.308,27.381-15.572,26.768-29.302c-0.695-16.756-14.059-25.502-29.302-26.81
										c-43.687-3.637-86.474,4.578-124.275,27.218C451.582,1567.524,481.579,1614.931,512.596,1596.376L512.596,1596.376z"/>
								</g>
							</g>
							<g>
								<g>
									<path fill="#70432F" d="M1362.629,1596.376c-29.833-17.817-62.853-21.413-96.978-18.511
										c-15.325,1.308-27.381-15.572-26.768-29.302c0.737-16.756,14.101-25.42,29.302-26.81
										c43.687-3.637,86.516,4.578,124.359,27.218C1423.603,1567.524,1393.646,1614.931,1362.629,1596.376L1362.629,1596.376z"/>
								</g>
							</g>
						</g>
						<g>
							<g>
								<g>
									<path fill="#FFFFFF" d="M140.584,1957.723c0,19.656-15.98,35.635-35.635,35.635c-19.74,0-35.677-15.979-35.677-35.635
										c0-19.74,15.938-35.638,35.677-35.638C124.605,1922.086,140.584,1937.984,140.584,1957.723z"/>
								</g>
								<g>
									<path fill="#E6E7E8" d="M113.49,1976.726c-15.611,0-28.239-12.588-28.239-28.199c0-12.546,8.296-22.803,19.698-26.442l0,0
										c-19.74,0-35.677,15.898-35.677,35.638c0,19.656,15.938,35.635,35.677,35.635c19.656,0,35.635-15.979,35.635-35.635
										c0-0.858-0.205-1.718-0.287-2.534C137.232,1967.49,126.649,1976.726,113.49,1976.726z"/>
								</g>
							</g>
							<g>
								<g>
									<path fill="#FFFFFF" d="M1792.386,1957.723c0,19.656-15.898,35.635-35.596,35.635s-35.677-15.979-35.677-35.635
										c0-19.74,15.979-35.638,35.677-35.638S1792.386,1937.984,1792.386,1957.723z"/>
								</g>
								<g>
									<path fill="#E6E7E8" d="M1765.29,1976.726c-15.569,0-28.157-12.588-28.157-28.199c0-12.546,8.296-22.803,19.658-26.442l0,0
										c-19.698,0-35.677,15.898-35.677,35.638c0,19.656,15.979,35.635,35.677,35.635s35.596-15.979,35.596-35.635
										c0-0.858-0.163-1.718-0.205-2.534C1789.076,1967.49,1778.532,1976.726,1765.29,1976.726z"/>
								</g>
							</g>
						</g>
						<g>
							<path fill="#C88973" d="M574.223,1911.013c-13.485,0-13.485,20.882,0,20.882
								C587.669,1931.895,587.669,1911.013,574.223,1911.013z"/>
							<path fill="#C88973" d="M476.716,1920.288c-13.488,0-13.488,20.924,0,20.924
								C490.16,1941.212,490.16,1920.288,476.716,1920.288z"/>
							<path fill="#C88973" d="M537.075,1964.425c-13.485,0-13.485,20.882,0,20.882
								C550.563,1985.307,550.563,1964.425,537.075,1964.425z"/>
							<path fill="#C88973" d="M627.636,1952.777c-13.485,0-13.485,20.924,0,20.924
								C641.123,1973.701,641.123,1952.777,627.636,1952.777z"/>
							<path fill="#C88973" d="M458.079,1978.318c-13.485,0-13.485,20.924,0,20.924
								C471.567,1999.242,471.567,1978.318,458.079,1978.318z"/>
							<path fill="#C88973" d="M562.577,2022.497c-13.446,0-13.446,20.882,0,20.882
								C576.104,2043.379,576.104,2022.497,562.577,2022.497z"/>
							<path fill="#C88973" d="M1363.731,1911.013c-13.485,0-13.485,20.882,0,20.882
								C1377.219,1931.895,1377.219,1911.013,1363.731,1911.013z"/>
							<path fill="#C88973" d="M1266.182,1920.288c-13.485,0-13.485,20.924,0,20.924
								C1279.67,1941.212,1279.67,1920.288,1266.182,1920.288z"/>
							<path fill="#C88973" d="M1326.583,1964.425c-13.485,0-13.485,20.882,0,20.882
								C1340.071,1985.307,1340.071,1964.425,1326.583,1964.425z"/>
							<path fill="#C88973" d="M1417.146,1952.777c-13.488,0-13.488,20.924,0,20.924
								C1430.589,1973.701,1430.589,1952.777,1417.146,1952.777z"/>
							<path fill="#C88973" d="M1247.629,1978.318c-13.485,0-13.485,20.924,0,20.924
								C1261.114,1999.242,1261.114,1978.318,1247.629,1978.318z"/>
							<path fill="#C88973" d="M1352.125,2022.497c-13.485,0-13.485,20.882,0,20.882
								C1365.612,2043.379,1365.612,2022.497,1352.125,2022.497z"/>
						</g>
						<g>
							<g>
								<path fill="#FFFFFF" d="M718.811,1772.718c0,81.53-66.124,147.612-147.612,147.612c-81.53,0-147.654-66.082-147.654-147.612
									s66.124-147.612,147.654-147.612C652.688,1625.107,718.811,1691.188,718.811,1772.718z"/>
								<path fill="#70432F" d="M691.186,1772.718c0,55.333-42.584,100.123-95.057,100.123c-52.555,0-95.139-44.79-95.139-100.123
									c0-55.293,42.584-100.125,95.139-100.125C648.601,1672.594,691.186,1717.425,691.186,1772.718z"><title>Eye</title></path>
								<g>
									<path fill="#E89C80" d="M571.2,1920.33c0,0-7.275,0.203-19.984,0.04c-3.187-0.121-6.702-0.04-10.544-0.326
										c-3.8-0.818-7.97-1.758-12.383-2.739c-4.494-1.021-9.317-2.124-14.343-3.268c-5.068-1.308-9.646-4.21-14.835-6.417
										c-5.028-2.574-10.667-4.699-15.856-7.928c-4.905-3.718-9.972-7.518-15.164-11.441c-5.557-3.678-10.175-8.541-14.63-13.814
										c-4.494-5.231-9.604-10.299-13.527-16.306c-7.152-12.464-15.609-25.052-19.085-40.05
										c-2.369-7.233-5.026-14.506-5.271-22.271c-0.858-8.133-1.758-14.304-2.413-24.152c2.086-14.509,1.473-28.281,7.52-43.769
										c3.597-15.693,12.096-28.076,19.208-40.582c3.963-6.007,9.073-11.075,13.527-16.306c4.455-5.271,9.112-10.133,14.63-13.812
										c5.231-3.923,10.299-7.765,15.203-11.443c5.149-3.268,10.788-5.352,15.856-7.928c5.189-2.208,9.807-5.108,14.751-6.415
										c5.028-1.105,9.767-2.208,14.222-3.229c4.415-0.981,8.501-1.881,12.301-2.739c3.923-0.287,7.52-0.245,10.749-0.326
										c12.914-0.205,20.066,0,20.066,0s-7.233,1.676-19.535,4.005c-3.065,0.613-6.457,1.103-10.094,1.961
										c-3.473,1.431-7.233,2.944-11.28,4.578c-3.963,1.594-8.173,3.31-12.628,5.108c-4.373,1.881-8.42,5.068-12.914,7.683
										c-4.331,2.86-9.196,5.313-13.527,8.786c-4.126,3.76-8.378,7.644-12.751,11.607c-4.699,3.639-8.46,8.378-12.014,13.446
										c-3.473,5.068-7.968,9.562-11.115,15.08c-5.804,11.362-12.343,22.926-15.04,35.309
										c-4.986,11.198-4.576,27.055-6.334,41.113c1.921,11.156,1.021,26.521,6.17,38.454c2.86,13.119,9.441,24.481,15.161,35.882
										c3.189,5.518,7.643,10.012,11.157,15.08c3.515,5.068,7.275,9.807,11.975,13.446c4.413,3.963,8.665,7.846,12.791,11.606
										c4.331,3.473,9.196,5.926,13.527,8.826c4.455,2.576,8.583,5.762,12.872,7.644c4.373,1.758,8.541,3.473,12.464,5.068
										c4.005,1.634,7.765,3.145,11.198,4.536c3.718,0.898,7.233,1.389,10.339,2.002
										C564.088,1918.694,571.2,1920.33,571.2,1920.33z"/>
								</g>
							</g>
							<g>
								<circle fill="#FFFFFF" cx="1304.067" cy="1772.718" r="147.612"/>
								<path fill="#70432F" d="M1184.039,1772.718c0,55.333,42.584,100.123,95.099,100.123c52.513,0,95.097-44.79,95.097-100.123
									c0-55.293-42.584-100.125-95.097-100.125C1226.623,1672.594,1184.039,1717.425,1184.039,1772.718z"> <title>Eye</title></path>
								<g>
									<path fill="#E89C80" d="M1304.067,1920.33c0,0,7.11-1.636,19.616-4.005c3.105-0.613,6.578-1.105,10.299-2.002
										c3.473-1.391,7.192-2.902,11.196-4.536c3.923-1.594,8.091-3.31,12.464-5.068c4.291-1.881,8.42-5.068,12.874-7.644
										c4.331-2.9,9.194-5.352,13.525-8.826c4.128-3.76,8.378-7.643,12.751-11.606c4.699-3.639,8.459-8.378,12.015-13.446
										c3.473-5.108,7.97-9.562,11.117-15.08c5.762-11.401,12.341-22.763,15.161-35.882c5.149-11.933,4.292-27.297,6.212-38.454
										c-1.799-14.059-1.349-29.915-6.375-41.113c-2.697-12.383-9.236-23.947-14.998-35.309c-3.147-5.518-7.683-9.97-11.157-15.08
										c-3.515-5.068-7.275-9.807-11.975-13.446c-4.373-3.963-8.623-7.847-12.751-11.565c-4.331-3.515-9.194-5.968-13.525-8.828
										c-4.496-2.615-8.541-5.802-12.914-7.683c-4.455-1.797-8.665-3.513-12.628-5.108c-4.047-1.634-7.807-3.147-11.28-4.578
										c-3.637-0.858-7.028-1.348-10.094-1.961c-12.301-2.329-19.535-4.005-19.535-4.005s7.152-0.205,20.066,0
										c3.229,0.082,6.823,0.04,10.746,0.326c3.802,0.858,7.928,1.758,12.301,2.739c4.455,1.021,9.196,2.124,14.222,3.229
										c4.944,1.308,9.562,4.208,14.793,6.415c5.028,2.576,10.667,4.66,15.816,7.928c4.905,3.72,9.972,7.52,15.203,11.443
										c5.516,3.678,10.175,8.541,14.588,13.812c4.497,5.231,9.604,10.299,13.527,16.306
										c7.112,12.506,15.611,24.889,19.248,40.624c6.007,15.446,5.394,29.218,7.52,43.727c-0.695,9.849-1.594,16.019-2.41,24.152
										c-0.287,7.765-2.944,14.998-5.273,22.271c-3.513,14.998-11.973,27.586-19.085,40.05
										c-3.923,6.007-9.073,11.035-13.527,16.266c-4.455,5.313-9.073,10.175-14.63,13.854
										c-5.189,3.923-10.257,7.723-15.161,11.441c-5.189,3.229-10.83,5.354-15.856,7.928c-5.191,2.208-9.767,5.11-14.793,6.417
										c-5.068,1.145-9.891,2.247-14.385,3.268c-4.415,0.981-8.583,1.921-12.383,2.739c-3.842,0.287-7.357,0.205-10.504,0.326
										C1311.382,1920.533,1304.067,1920.33,1304.067,1920.33z"/>
								</g>
							</g>
						</g>
						<g>
							<path opacity="0.3" fill="#F17382" d="M365.353,2032.959c0,41.438,53.412,74.991,119.413,74.991
								c65.919,0,119.454-33.553,119.454-74.991c0-41.398-53.536-75.073-119.454-75.073
								C418.765,1957.886,365.353,1991.561,365.353,2032.959z"/>
							<path opacity="0.3" fill="#F17382" d="M1271.045,2032.959c0,41.438,53.414,74.991,119.373,74.991
								c65.919,0,119.454-33.553,119.454-74.991c0-41.398-53.536-75.073-119.454-75.073
								C1324.459,1957.886,1271.045,1991.561,1271.045,2032.959z"/>
						</g>
						<path opacity="0.1" fill="#FFFFFF" d="M1519.353,936.171c-215.449-95.873-441.854-74.623-441.854-74.623
							c360.326,175.809,395.919,286.477,395.919,286.477c-178.792-134.371-415.289-175.361-415.289-175.361
							c42.582,135.066,277.036,224.442,277.036,224.442c-332.985-40.09-391.628-204.253-391.628-204.253
							c-63.916-44.505-87.864,79.159-87.864,79.159c9.522-113.405-90.889-158.318-90.889-158.318l29.589-247.49
							C794.374,666.205,1328.259,610.462,1519.353,936.171z"> <title>Hair</title></path>
						<path opacity="0.1" fill="#FFFFFF" d="M373.77,1093.1c70.21-93.831,206.176-172.417,206.176-172.417
							c-169.843,50.715-350.272,207.768-350.272,207.768c76.586-162.039,253.907-281.288,253.907-281.288
							c-136.905,30.404-235.802,129.303-235.802,129.303C498.824,677.28,764.785,667.103,764.785,667.103l-43.277,399.474
							C721.509,1066.577,672.591,954.806,373.77,1093.1z"> <title>Hair</title></path>
						<path opacity="0.1" fill="#FFFFFF" d="M357.465,1148.72c0,0-254.886,293.547-223.869,459.262c0,0-25.542-90.029-8.049-212.017
							c0,0-90.234,76.217-66.492,174.256c0,0-129.63-192.073,159.668-491.301c0,0-85.371,152.311-74.173,266.779
							C144.549,1345.7,216.923,1186.44,357.465,1148.72z"> <title>Hair</title></path>
						<path opacity="0.1" fill="#FFFFFF" d="M1522.786,1052.355c0,0,244.956,301.885,208.463,466.456
							c0,0,28.526-89.132,15.12-211.649c0,0,87.619,79.199,60.648,176.34c0,0,135.963-187.702-143.239-496.287
							c0,0,80.262,155.09,65.224,269.066C1729.001,1256.282,1661.978,1094.735,1522.786,1052.355z"> <title>Hair</title></path>
					</g>
				</g>
				<path opacity="0.5" fill="#FFFFFF" d="M518.359,3465.468L96.897,3865.801c0,0,956.246,395.754,1705.132-24.929l-400.906-375.404
					H518.359z"/>
				<path opacity="0.5" fill="#FFFFFF" d="M518.359,3465.468l-413.41,311.937c0,0,923.756,408.505,1697.081,3.8l-400.906-315.737
					H518.359z"/>
				<g>
					<path fill="#70432F" d="M1061.603,596.364c0,0-111.895,65.224-253.581-28.689c-25.337-53.168-115.408-89.745-116.797-90.316
						c-39.722-16.021-80.793-97.509-89.948-136.415c-12.301-52.473,0.613-107.643,22.721-155.703
						C669.444,86.426,770.18,20.997,874.841,6.735C973.74-6.75,1108.15-5.321,1188.822,61.947
						c39.885,33.307,87.822,108.869,90.316,162.281C1279.138,224.27,1302.759,484.387,1061.603,596.364z"/>
					<path fill="#DC4A73" d="M768.056,536.576c-2.084,46.342,33.878,85.533,80.18,87.495l180.265,7.886
						c46.3,2.002,85.493-33.918,87.495-80.22l0,0c2.042-46.302-33.878-85.495-80.18-87.537l-180.305-7.807
						C809.167,454.351,770.058,490.273,768.056,536.576L768.056,536.576z"/>
					<path opacity="0.1" fill="#FFFFFF" d="M1184.123,348.75c0,0-105.845-175.892-347.412-214.183c0,0,81.94-33.92,177.037-4.252
						c0,0-50.349-82.428-131.103-75.767c0,0,254.52-62.935,372.83,191.177c0,0-111.526-88.232-203.884-93.668
						C1051.591,152.058,1170.064,230.685,1184.123,348.75z"/>
					<path opacity="0.1" fill="#FFFFFF" d="M742.269,173.063c0,0,0.082,150.635,137.598,266.085c0,0-64.406-9.644-113.037-64.284
						c0,0,0.531,70.947,53.862,97.265c0,0-183.942-56.643-162.242-261.264c0,0,36.78,97.633,92.85,136.005
						C751.3,346.869,706.429,252.63,742.269,173.063z"/>
				</g>
				<g>
					<g>
						<path fill="#F7B68D" d="M505.845,3405.144c0,0-74.891-417.823,149.877-830.581c0,0-86.771-43.768-181.34,36.858
							c0,0-268.213,220.43-59.371,821.251C415.012,3432.673,476.49,3504.478,505.845,3405.144z"/>
						<g>
							<path fill="#F7B68D" d="M436.79,3622.176c-47.439-58.576-56.369-118.85-56.369-118.85s-12.967-63.661,15.62-96.162
								c0,0,41.867-62.678,106.459-29.481c16.316,8.423,25.089,27.777,34.71,42.385c0.643,1.052,1.345,2.081,2.002,3.071
								c11.281,16.784,23.853,33.05,40.165,45.286c27.555,20.558,11.024,41.393,11.024,41.393
								c-7.486,10.189-22.063,10.212-31.425,2.574c-11.546-9.481-22.739-19.629-34.14-29.328
								c-19.842-11.059-18.685,5.783-18.685,5.783c18.682,44.149,51.918,93.61,51.918,93.61c8.443,19.569-6.272,28.399-6.272,28.399
								s-11.655,14.479-43.474-26.92c0,0-27.829-38.354-41.604-80.274c4.351,27.932,40.767,87.583,40.767,87.583
								c22.727,23.855-0.211,35.841-0.211,35.841c-28.568,9.203-52.048-46.619-52.048-46.619
								c-22.137-48.904-33.13-68.337-33.13-68.337l35.945,79.335c0,0,17.135,25.621,3.953,34.404
								C461.996,3625.869,451.96,3635.946,436.79,3622.176z"/>
						</g>
					</g>
				</g>
			</g>
			<g>
				<g>
					<path fill="#B37345" d="M1653.071,3466.039c30.444,178.874-124.646,361.326-348.412,361.284
						c-223.787,0.042-378.919-182.389-348.433-361.284c30.202-179.916,185.578-299.023,348.433-300.004
						C1467.472,3167.016,1622.869,3286.123,1653.071,3466.039z"/>
					<path fill="#B37345" d="M1221.616,3176.886c-61.135,35.186-115.653,85.514-156.069,139.723
						c-28.731,38.538-54.191,82.43-62.813,130.345c-4.107,22.721-4.292,45.484-1.779,68.432c2.678,24.479,5.825,57.48,21.313,77.893
						c17.287,22.803,45.034,34.123,62.424,56.518c13.956,18.042,22.089,39.764,34.738,58.727
						c28.505,42.829,68.003,67.308,118.534,76.831c26.113,4.923,54.415,7.191,80.978,7.599c24.5,0.368,55.762-0.245,74.52-18.961
						c32.204-32.122,26.665-85.248,53.291-121.499c30.609-41.703,89.234-43.072,132.124-63.814
						c44.524-21.537,75.318-55.68,75.726-107.172c0-1.902-0.123-3.76-0.163-5.641c-0.429-3.268-0.797-6.557-1.368-9.828
						c-30.202-179.916-185.599-299.023-348.412-300.004C1276.542,3166.198,1248.692,3169.979,1221.616,3176.886z"/>
					<path opacity="0.2" fill="#BA7F49" d="M1648.514,3541.173c-34.083,58.196-112.958,42.298-167.738,69.147
						c-38.435,18.882-64.448,46.466-75.134,86.024c-5.967,22.192-5.17,79.672-23.703,95.262
						c-34.125,28.729-65.734,11.401-106.869,6.989c-43.522-4.618-85.535-12.056-121.457-38.824
						c-15.325-11.443-28.3-26.4-38.864-42.256c-13.875-20.842-22.763-48.449-40.519-66.124
						c-17.348-17.245-40.887-28.913-55.844-48.592c-13.303-17.572-19.187-39.743-22.723-61.217
						c-7.192-43.566-7.744-87.027,7.131-129.14c15.714-44.484,41.011-85.085,71.539-120.925
						c33.143-38.946,72.457-75.604,116.163-105.151c-115.939,41.277-211.302,142.87-234.27,279.673
						c-30.486,178.895,124.646,361.326,348.433,361.284c199.43,0.042,344.223-144.915,351.783-303.089
						C1654.337,3530.037,1651.721,3535.697,1648.514,3541.173z"/>
					<path fill="#FFDEBC" d="M1478.854,3381.507c15.222,89.416-62.322,180.653-174.195,180.632
						c-111.895,0.021-189.459-91.215-174.216-180.632c15.101-89.989,92.789-149.532,174.216-150.022
						C1386.065,3231.974,1463.754,3291.518,1478.854,3381.507z"/>
					<g>
						<g>
							<path fill="#B37345" d="M1122.822,2719.687c0,56.804-46.037,102.862-102.864,102.862
								c-56.804,0-102.862-46.058-102.862-102.862c0-56.806,46.058-102.862,102.862-102.862
								C1076.785,2616.825,1122.822,2662.881,1122.822,2719.687z"/>
							<path fill="#FFDEBC" d="M1082.996,2724.958c0,30.426-24.663,55.07-55.067,55.07c-30.384,0-55.049-24.644-55.049-55.07
								c0-30.384,24.665-55.026,55.049-55.026C1058.333,2669.932,1082.996,2694.574,1082.996,2724.958z"/>
						</g>
						<g>
							<path fill="#B37345" d="M1476.526,2719.687c0,56.804,46.037,102.862,102.841,102.862
								c56.825,0,102.883-46.058,102.883-102.862c0-56.806-46.058-102.862-102.883-102.862
								C1522.562,2616.825,1476.526,2662.881,1476.526,2719.687z"/>
							<path fill="#FFDEBC" d="M1516.371,2724.958c0,30.426,24.663,55.07,55.047,55.07c30.386,0,55.049-24.644,55.049-55.07
								c0-30.384-24.663-55.026-55.049-55.026C1541.034,2669.932,1516.371,2694.574,1516.371,2724.958z"/>
						</g>
						<path fill="#B37345" d="M951.608,2947.581c37.843-164.612,177.69-301.599,354.114-301.496
							c176.422-0.103,316.269,136.884,354.111,301.496c36.698,157.358-121.723,327.754-354.111,333.801
							C1073.331,3275.335,914.91,3104.939,951.608,2947.581z"><title>Teddy bear</title></path>
						<path opacity="0.2" fill="#BA7F49" d="M1659.833,2947.581c-37.843-164.612-177.69-301.599-354.111-301.496
							c-176.424-0.103-316.271,136.884-354.114,301.496c-36.698,157.358,121.723,327.754,354.114,333.801
							C1538.111,3275.335,1696.532,3104.939,1659.833,2947.581z M1344.81,3245.502c-200.635-4.986-337.416-146.017-305.725-276.281
							c32.673-136.231,153.395-249.594,305.725-249.534c152.332-0.061,273.052,113.303,305.727,249.534
							C1682.188,3099.484,1545.447,3240.516,1344.81,3245.502z"/>
						<path fill="#FFDEBC" d="M1435.391,3130.092c1.921-34.183-15.754-75.439-43.156-95.097
							c-13.709-9.807-38.538-23.54-78.709-23.54l-0.082,0.021l-0.082-0.021c-40.172,0-65.019,13.732-78.709,23.54
							c-27.402,19.658-45.076,60.914-43.155,95.097c0,0,6.212,69.107,124.807,70.905
							C1316.305,3200.997,1430.489,3202.754,1435.391,3130.092z"/>
						<g>
							<g>
								<path fill="#5D0C10" d="M1342.87,3049.217c9.767,4.741,15.509,12.772,11.033,25.828c0,0-12.404,36.209-44.913,33.694
									c-32.489,2.515-44.913-33.694-44.913-33.715c-0.816-17.553,10.096-26.747,25.992-30.099
									C1301.144,3042.557,1327.196,3041.657,1342.87,3049.217z"/>
							</g>
							<g>
								<g>
									<path fill="#5D0C10" d="M1266.161,2974.962c0,20.76-13.485,37.598-30.097,37.598c-16.614,0-30.078-16.838-30.078-37.598
										c0-20.761,13.464-37.556,30.078-37.556C1252.676,2937.406,1266.161,2954.202,1266.161,2974.962z"/>
									<path fill="#FFFFFF" d="M1240.845,2962.559c0,7.846-6.396,14.243-14.264,14.243c-7.865,0-14.241-6.396-14.241-14.243
										c0-7.886,6.376-14.243,14.241-14.243C1234.449,2948.316,1240.845,2954.672,1240.845,2962.559z"/>
									<path fill="#FFFFFF" d="M1243.563,2989.224c0,3.923-3.189,7.112-7.112,7.112c-3.942,0-7.131-3.189-7.131-7.112
										c0-3.923,3.189-7.11,7.131-7.11C1240.375,2982.114,1243.563,2985.301,1243.563,2989.224z"/>
								</g>
								<g>
									<path fill="#5D0C10" d="M1351.84,2974.962c0,20.76,13.464,37.598,30.099,37.598c16.591,0,30.078-16.838,30.078-37.598
										c0-20.761-13.488-37.556-30.078-37.556C1365.305,2937.406,1351.84,2954.202,1351.84,2974.962z"/>
									<path fill="#FFFFFF" d="M1377.156,2962.559c0,7.846,6.375,14.243,14.264,14.243c7.846,0,14.222-6.396,14.222-14.243
										c0-7.886-6.375-14.243-14.222-14.243C1383.531,2948.316,1377.156,2954.672,1377.156,2962.559z"/>
									<path fill="#FFFFFF" d="M1374.419,2989.224c0,3.923,3.187,7.112,7.131,7.112c3.944,0,7.131-3.189,7.131-7.112
										c0-3.923-3.187-7.11-7.131-7.11C1377.606,2982.114,1374.419,2985.301,1374.419,2989.224z"/>
								</g>
							</g>
							<path fill="#FFFFFF" d="M1344.096,3067.239c-1.023,6.049-8.031,9.932-15.653,8.665c-7.641-1.266-13.017-7.192-12.014-13.241
								c1-6.068,8.01-9.951,15.651-8.683C1339.723,3055.245,1345.076,3061.192,1344.096,3067.239z"/>
						</g>
					</g>
					<g>
						<path fill="#B37345" d="M1106.25,3241.66c-26.236-23.418-98.162,35.493-115.858,48.876
							c-70.17,53.065-166.596,185.639-83.88,269.15c19.8,19.984,64.795,30.384,91.663,19.719
							c22.129-8.807,36.332-32.244,40.929-53.394c5.231-23.948-7.397-42.461-13.322-64.508
							c-6.662-24.826,3.473-40.948,18.411-60.156c25.111-32.304,52.247-66.674,65.734-105.824
							C1115.731,3278.746,1121.657,3255.432,1106.25,3241.66z"/>
						<path opacity="0.2" fill="#BA7F49" d="M1106.25,3241.66c-5.028-4.497-11.77-5.926-19.453-5.273
							c2.902,3.923,5.026,8.338,5.986,13.322c4.25,21.702-7.539,45.608-20.208,62.569c-16.469,22.069-38.538,39.559-54.128,62.28
							c-8.031,11.688-14.938,24.705-17.061,38.906c-2.678,18.043,1.592,35.33,6.476,52.596c6.928,24.561,15.469,55.212-0.858,78.26
							c-11.422,16.143-30.099,23.479-49.634,22.845c-23.416-0.776-46.69-8.255-62.24-26.605c-5.271-6.21-9.786-12.873-13.793-19.819
							c5.089,13.73,13.201,26.849,25.176,38.946c19.8,19.984,64.795,30.384,91.663,19.719c22.129-8.807,36.332-32.244,40.929-53.394
							c5.231-23.948-7.397-42.461-13.322-64.508c-6.662-24.826,3.473-40.948,18.411-60.156
							c25.111-32.304,52.247-66.674,65.734-105.824C1115.731,3278.746,1121.657,3255.432,1106.25,3241.66z"/>
					</g>
					<g>
						<path fill="#B37345" d="M1490.582,3241.66c26.236-23.418,98.183,35.493,115.878,48.876
							c70.149,53.065,166.575,185.639,83.859,269.15c-19.819,19.984-64.793,30.384-91.663,19.719
							c-22.15-8.807-36.332-32.244-40.95-53.394c-5.189-23.948,7.438-42.461,13.364-64.508c6.641-24.826-3.515-40.948-18.43-60.156
							c-25.113-32.304-52.27-66.674-65.755-105.824C1481.123,3278.746,1475.176,3255.432,1490.582,3241.66z"/>
						<path opacity="0.2" fill="#BA7F49" d="M1490.582,3241.66c5.047-4.497,11.77-5.926,19.453-5.273
							c-2.881,3.923-5.005,8.338-5.986,13.322c-4.25,21.702,7.52,45.608,20.187,62.569c16.49,22.069,38.558,39.559,54.149,62.28
							c8.01,11.688,14.958,24.705,17.063,38.906c2.676,18.043-1.594,35.33-6.478,52.596c-6.947,24.561-15.448,55.212,0.858,78.26
							c11.422,16.143,30.12,23.479,49.613,22.845c23.437-0.776,46.71-8.255,62.282-26.605c5.271-6.21,9.767-12.873,13.772-19.819
							c-5.089,13.73-13.222,26.849-25.176,38.946c-19.819,19.984-64.793,30.384-91.663,19.719
							c-22.15-8.807-36.332-32.244-40.95-53.394c-5.189-23.948,7.438-42.461,13.364-64.508c6.641-24.826-3.515-40.948-18.43-60.156
							c-25.113-32.304-52.27-66.674-65.755-105.824C1481.123,3278.746,1475.176,3255.432,1490.582,3241.66z"/>
					</g>
					<g>
						<g>
							<path fill="#B37345" d="M1114.668,3874.729c33.001-21.393,59.093-54.189,68.534-90.479
								c22.129-84.922-39.13-181.632-138.56-150.594c-25.213,7.865-40.232,34.409-44.382,62.688
								c-4.515,30.775,8.359,41.603-0.795,71.763c-7.112,23.439-22.56,44.055-29.67,67.289
								C948.872,3903.867,1075.068,3900.436,1114.668,3874.729z"/>
							<g>
								<path fill="#BE7C48" d="M1100.754,3762.999c0,67.063-44.995,121.457-100.512,121.457
									c-55.498,0-100.493-54.394-100.493-121.457c0-67.063,44.995-121.457,100.493-121.457
									C1055.759,3641.542,1100.754,3695.936,1100.754,3762.999z"/>
								<g>
									<path fill="#FFDEBC" d="M1055.288,3795.693c0,18.758-24.642,33.959-55.047,33.959c-30.407,0-55.049-15.201-55.049-33.959
										c0-18.716,24.642-33.92,55.049-33.92C1030.646,3761.773,1055.288,3776.977,1055.288,3795.693z"/>
									<path fill="#FFDEBC" d="M1019.795,3721.622c0,13.954-8.765,25.255-19.535,25.255c-10.809,0-19.553-11.301-19.553-25.255
										c0-13.956,8.744-25.278,19.553-25.278C1011.03,3696.344,1019.795,3707.666,1019.795,3721.622z"/>
									<g>
										<path fill="#FFDEBC" d="M974.535,3740.073c0,13.935-8.786,25.255-19.574,25.255c-10.788,0-19.535-11.32-19.535-25.255
											c0-13.977,8.746-25.276,19.535-25.276C965.749,3714.797,974.535,3726.096,974.535,3740.073z"/>
										<path fill="#FFDEBC" d="M1065.076,3740.073c0,13.935-8.765,25.255-19.555,25.255c-10.788,0-19.535-11.32-19.535-25.255
											c0-13.977,8.746-25.276,19.535-25.276C1056.311,3714.797,1065.076,3726.096,1065.076,3740.073z"/>
									</g>
								</g>
							</g>
						</g>
						<g>
							<path fill="#B37345" d="M1484.657,3874.729c-32.978-21.393-59.072-54.189-68.534-90.479
								c-22.108-84.922,39.151-181.632,138.581-150.594c25.215,7.865,40.232,34.409,44.402,62.688
								c4.495,30.775-8.378,41.603,0.776,71.763c7.11,23.439,22.558,44.055,29.668,67.289
								C1650.495,3903.867,1524.278,3900.436,1484.657,3874.729z"/>
							<g>
								<path fill="#BE7C48" d="M1498.592,3762.999c0,67.063,44.995,121.457,100.514,121.457
									c55.496,0,100.491-54.394,100.491-121.457c0-67.063-44.995-121.457-100.491-121.457
									C1543.587,3641.542,1498.592,3695.936,1498.592,3762.999z"/>
								<g>
									<path fill="#FFDEBC" d="M1544.057,3795.693c0,18.758,24.642,33.959,55.049,33.959c30.384,0,55.047-15.201,55.047-33.959
										c0-18.716-24.663-33.92-55.047-33.92C1568.699,3761.773,1544.057,3776.977,1544.057,3795.693z"/>
									<path fill="#FFDEBC" d="M1579.53,3721.622c0,13.954,8.786,25.255,19.576,25.255c10.788,0,19.535-11.301,19.535-25.255
										c0-13.956-8.746-25.278-19.535-25.278C1588.316,3696.344,1579.53,3707.666,1579.53,3721.622z"/>
									<g>
										<path fill="#FFDEBC" d="M1624.811,3740.073c0,13.935,8.786,25.255,19.553,25.255c10.809,0,19.555-11.32,19.555-25.255
											c0-13.977-8.746-25.276-19.555-25.276C1633.597,3714.797,1624.811,3726.096,1624.811,3740.073z"/>
										<path fill="#FFDEBC" d="M1534.269,3740.073c0,13.935,8.746,25.255,19.556,25.255c10.788,0,19.534-11.32,19.534-25.255
											c0-13.977-8.746-25.276-19.534-25.276C1543.015,3714.797,1534.269,3726.096,1534.269,3740.073z"/>
									</g>
								</g>
							</g>
						</g>
					</g>
				</g>
				<g>
					<g>
						<path fill="#F7B68D" d="M1546.468,3192.7c0,0,131.408-85.085,113.366-245.119c0,0,62.364,14.977,86.577,95.67
							c0,0,36.922,157.745-134.656,218.372C1611.755,3261.624,1522.744,3293.52,1546.468,3192.7z"/>
						<g>
							<path fill="#F7B68D" d="M1498.96,3415.345c70.108-27.381,107.808-75.278,107.808-75.278s42.827-48.876,34.104-91.255
								c0,0-5.273-75.115-77.893-78.343c-18.369-0.797-35.533,11.73-51.186,19.698c-1.103,0.492-2.145,1.063-3.168,1.594
								c-18.227,8.991-37.127,16.898-57.438,19.411c-34.062,4.252-30.036,30.488-30.036,30.488
								c1.41,12.546,14.099,19.819,26.052,17.817c14.672-2.534,29.465-5.76,44.198-8.581c22.661,0.326,13.322,14.364,13.322,14.364
								c-38.088,29.078-91.5,55.517-91.5,55.517c-17.001,12.751-8.604,27.831-8.604,27.831s3.005,18.35,51.083-1.879
								c0,0,43.197-19.576,75.891-49.123c-17.572,22.15-78.812,55.865-78.812,55.865c-31.509,9.522-17.511,31.244-17.511,31.244
								c20.229,22.129,68.289-14.609,68.289-14.609c43.503-31.633,62.648-43.034,62.648-43.034l-70.597,51.044
								c0,0-27.504,13.854-20.353,28.034C1475.258,3406.149,1478.894,3419.8,1498.96,3415.345z"/>
						</g>
					</g>
				</g>
			</g>
		</g>
	
	</g>
</g>
</svg>
